<svg width="41" height="41" viewBox="0 0 41 41" fill="none" xmlns="http://www.w3.org/2000/svg">
<circle cx="20.5789" cy="20.5673" r="20" fill="#2A2B2E"/>
<path d="M17.0495 18.5084L16.4731 17.4559L15.6685 17.8965L15.8826 18.7885L17.0495 18.5084ZM30.5542 12.0804C30.7401 11.4443 30.3752 10.7779 29.7391 10.5919L19.3729 7.5618C18.7367 7.37586 18.0703 7.7408 17.8844 8.37692C17.6984 9.01305 18.0634 9.67946 18.6995 9.86541L27.9139 12.5589L25.2205 21.7733C25.0345 22.4094 25.3995 23.0758 26.0356 23.2617C26.6717 23.4477 27.3381 23.0827 27.5241 22.4466L30.5542 12.0804ZM18.8142 25.8614L19.5342 26.8214L20.1651 26.3482L19.981 25.5813L18.8142 25.8614ZM17.6258 19.5609L29.9788 12.7962L28.826 10.6912L16.4731 17.4559L17.6258 19.5609ZM14.8283 30.3508L19.5342 26.8214L18.0942 24.9014L13.3883 28.4308L14.8283 30.3508ZM19.981 25.5813L18.2163 18.2284L15.8826 18.7885L17.6473 26.1414L19.981 25.5813Z" fill="#21BC72"/>
</svg>
