<svg width="127" height="49" viewBox="0 0 127 49" fill="none" xmlns="http://www.w3.org/2000/svg">
<path d="M0.765754 36.5V36.1519L1.39228 35.9431C1.85637 35.7807 2.16964 35.5602 2.33207 35.2818C2.4945 35.0033 2.57572 34.632 2.57572 34.1679C2.59892 32.7756 2.61053 31.3718 2.61053 29.9563C2.61053 28.5408 2.61053 27.1253 2.61053 25.7098V24.3175C2.61053 22.9253 2.61053 21.533 2.61053 20.1407C2.61053 18.7252 2.59892 17.3213 2.57572 15.9291C2.57572 15.465 2.50611 15.0937 2.36688 14.8152C2.25085 14.5368 1.9724 14.3163 1.53151 14.1539L0.765754 13.8754V13.5274H17.6124L17.856 19.3053H17.5079L15.5239 15.6506C15.2919 15.2097 15.025 14.8616 14.7234 14.6064C14.4217 14.3511 14.004 14.2235 13.4703 14.2235H7.86639C7.84318 15.871 7.83158 17.5534 7.83158 19.2705C7.83158 20.9877 7.83158 22.6932 7.83158 24.3872H11.4515C11.9852 24.3872 12.3797 24.2711 12.6349 24.0391C12.8902 23.807 13.1338 23.4706 13.3659 23.0297L14.0968 21.707H14.4449V27.7982H14.0968L13.3311 26.4756C13.099 26.0579 12.8554 25.7214 12.6001 25.4662C12.3681 25.2109 11.9852 25.0833 11.4515 25.0833H7.83158C7.83158 26.7076 7.83158 28.2623 7.83158 29.7474C7.83158 31.2093 7.84318 32.648 7.86639 34.0635C7.86639 34.9685 8.30727 35.5602 9.18905 35.8387L10.2333 36.1519V36.5H0.765754ZM18.3376 36.5V36.1519L18.8597 36.0127C19.3238 35.8735 19.637 35.6646 19.7995 35.3862C19.9851 35.1077 20.0779 34.748 20.0779 34.3072V23.4126C20.0779 22.9021 19.9851 22.5308 19.7995 22.2987C19.637 22.0435 19.3238 21.8695 18.8597 21.7766L18.3376 21.6374V21.2893L24.3244 19.2705L24.6725 19.6186L24.9857 22.612V22.8905C25.3106 22.2407 25.7283 21.649 26.2388 21.1153C26.7725 20.5584 27.3526 20.1059 27.9791 19.7578C28.6289 19.4098 29.267 19.2357 29.8935 19.2357C30.7753 19.2357 31.4482 19.4794 31.9123 19.9667C32.3764 20.454 32.6085 21.0689 32.6085 21.8114C32.6085 22.6004 32.3764 23.2153 31.9123 23.6562C31.4714 24.0739 30.9377 24.2827 30.3112 24.2827C29.3366 24.2827 28.478 23.7954 27.7355 22.8208L27.6659 22.7512C27.4338 22.4264 27.167 22.2523 26.8653 22.2291C26.5636 22.1827 26.2852 22.3219 26.0299 22.6468C25.7979 22.8556 25.6006 23.1109 25.4382 23.4126C25.299 23.691 25.1598 24.0159 25.0205 24.3872V34.0983C25.0205 35.0265 25.4266 35.6066 26.2388 35.8387L27.3526 36.1519V36.5H18.3376ZM57.4938 37.0221C55.9159 37.0221 54.4772 36.6856 53.1778 36.0127C51.9015 35.3166 50.8805 34.3188 50.1148 33.0193C49.3722 31.6966 49.0009 30.0839 49.0009 28.1811C49.0009 26.3015 49.407 24.7004 50.2192 23.3778C51.0545 22.0319 52.1568 21.0109 53.5258 20.3147C54.9181 19.5954 56.438 19.2357 58.0856 19.2357C59.4314 19.2357 60.5685 19.4562 61.4967 19.8971C62.4248 20.3379 63.1326 20.9181 63.6199 21.6374C64.1072 22.3335 64.3508 23.0645 64.3508 23.8302C64.3508 24.48 64.1536 24.9905 63.7591 25.3618C63.3646 25.7098 62.8541 25.8839 62.2276 25.8839C61.5547 25.8839 61.0094 25.6402 60.5917 25.1529C60.174 24.6656 59.9303 24.0275 59.8607 23.2385C59.8375 22.728 59.8491 22.2987 59.8955 21.9507C59.9419 21.5794 59.9419 21.2081 59.8955 20.8368C59.8027 20.4424 59.6519 20.1871 59.443 20.0711C59.2574 19.9319 58.9905 19.8622 58.6425 19.8622C57.227 19.8622 56.1248 20.4772 55.3358 21.707C54.5701 22.9369 54.1872 24.8977 54.1872 27.5894C54.1872 29.9331 54.6165 31.7314 55.475 32.9845C56.3568 34.2143 57.7027 34.8293 59.5127 34.8293C60.6033 34.8293 61.4851 34.632 62.158 34.2375C62.8309 33.8431 63.4807 33.2513 64.1072 32.4624L64.4552 32.7408C63.8751 34.1099 62.9818 35.1657 61.7751 35.9083C60.5685 36.6508 59.1414 37.0221 57.4938 37.0221ZM72.4707 37.0221C70.9856 37.0221 69.8253 36.6508 68.99 35.9083C68.1778 35.1657 67.7717 33.9823 67.7717 32.358V20.454H65.37V20.1059L66.2054 19.9667C66.9247 19.8042 67.5397 19.5722 68.0502 19.2705C68.5839 18.9689 69.106 18.5628 69.6165 18.0523L72.4707 14.8848H72.8187L72.7143 19.7578H76.6127V20.454H72.6795V32.9845C72.6795 33.7967 72.8535 34.4116 73.2016 34.8293C73.5729 35.2469 74.037 35.4558 74.5939 35.4558C75.0812 35.4558 75.5105 35.3398 75.8817 35.1077C76.253 34.8525 76.6243 34.516 76.9956 34.0983L77.3436 34.4464C76.8795 35.2353 76.2414 35.8619 75.4292 36.326C74.6171 36.7901 73.6309 37.0221 72.4707 37.0221ZM82.6109 17.4258C81.822 17.4258 81.149 17.1821 80.5921 16.6948C80.0584 16.1843 79.7915 15.5462 79.7915 14.7804C79.7915 13.9915 80.0584 13.3533 80.5921 12.866C81.149 12.3787 81.822 12.1351 82.6109 12.1351C83.3999 12.1351 84.0612 12.3787 84.5949 12.866C85.1286 13.3533 85.3955 13.9915 85.3955 14.7804C85.3955 15.5462 85.1286 16.1843 84.5949 16.6948C84.0612 17.1821 83.3999 17.4258 82.6109 17.4258ZM78.5037 36.5V36.1519L78.991 36.0127C79.4551 35.8735 79.7683 35.6646 79.9308 35.3862C80.1164 35.1077 80.2092 34.7364 80.2092 34.2724V23.3778C80.2092 22.8905 80.1164 22.5308 79.9308 22.2987C79.7683 22.0435 79.4551 21.8695 78.991 21.7766L78.5037 21.6722V21.3241L84.8734 19.2705L85.2214 19.6186L85.117 24.5612V34.3072C85.117 34.7713 85.1982 35.1425 85.3607 35.421C85.5463 35.6994 85.8596 35.9083 86.3005 36.0475L86.6485 36.1519V36.5H78.5037ZM88.2592 36.5V36.1519L88.7117 36.0475C89.1526 35.9315 89.5006 35.7342 89.7559 35.4558C90.0111 35.1541 90.1387 34.7713 90.1387 34.3072C90.1387 33.4486 90.1387 32.6016 90.1387 31.7662C90.162 30.9077 90.1736 30.0491 90.1736 29.1905V20.454H88.2244V20.0711L88.9901 19.9319C89.4542 19.8855 89.7907 19.723 89.9995 19.4446C90.2084 19.1661 90.3592 18.7832 90.452 18.2959C90.6841 17.3909 91.0205 16.602 91.4614 15.9291C91.9255 15.2329 92.4476 14.5948 93.0277 14.0147C93.9095 13.1793 94.8377 12.5992 95.8123 12.2743C96.8101 11.9262 97.7847 11.7522 98.7361 11.7522C99.6643 11.7522 100.511 11.9495 101.277 12.3439C102.043 12.7152 102.426 13.3417 102.426 14.2235C102.426 14.85 102.24 15.3489 101.869 15.7202C101.497 16.0683 100.975 16.2423 100.302 16.2423C99.7455 16.2423 99.235 16.0915 98.7709 15.7898C98.3068 15.4882 97.8543 14.9545 97.4134 14.1887L96.9261 13.597C96.6709 13.2721 96.4156 13.1213 96.1604 13.1445C95.9051 13.1445 95.7195 13.3301 95.6035 13.7014C95.441 14.5136 95.3134 15.465 95.2206 16.5556C95.151 17.6462 95.1162 18.7136 95.1162 19.7578H99.0145V20.454H95.1162V34.2375C95.1162 35.1193 95.5802 35.6878 96.5084 35.9431L97.3786 36.1519V36.5H88.2592ZM103.765 44.8537C102.836 44.8537 102.094 44.6216 101.537 44.1575C101.003 43.6934 100.736 43.1017 100.736 42.3824C100.736 41.7327 100.968 41.2105 101.433 40.8161C101.897 40.4216 102.419 40.2244 102.999 40.2244C103.579 40.2244 104.066 40.3404 104.461 40.5724C104.855 40.8277 105.203 41.1873 105.505 41.6514L105.749 41.9299C106.259 42.626 106.77 42.6144 107.28 41.8951C107.489 41.547 107.721 41.0829 107.976 40.5028C108.255 39.9459 108.568 39.1917 108.916 38.2404L102.163 22.0899C102.001 21.649 101.827 21.3009 101.641 21.0457C101.456 20.7672 101.154 20.5352 100.736 20.3495L100.11 20.1059V19.7578H108.777V20.0711L108.081 20.3495C107.57 20.512 107.303 20.7788 107.28 21.1501C107.28 21.4982 107.373 21.9391 107.559 22.4728L111.178 31.8707L114.624 22.3684C114.81 21.8346 114.88 21.3938 114.833 21.0457C114.787 20.6744 114.497 20.4192 113.963 20.2799L113.232 20.1059V19.7578H118.07V20.1059L117.305 20.3495C116.771 20.512 116.4 20.744 116.191 21.0457C115.982 21.3473 115.785 21.765 115.599 22.2987L109.995 37.579C109.09 40.0155 108.185 41.8371 107.28 43.0437C106.375 44.2504 105.203 44.8537 103.765 44.8537Z" fill="#2C5F52"/>
<path d="M0 39.9807H118.523V41.7211H0V39.9807Z" fill="#2C5F52"/>
<path fill-rule="evenodd" clip-rule="evenodd" d="M44.5511 25.155L40.2456 17.9035L33.8922 28.6039C33.7819 28.6835 33.6768 28.7649 33.5769 28.8483C32.463 29.7532 31.9061 30.751 31.9061 31.8417C31.9061 33.2803 32.3586 34.3826 33.2636 35.1483C34.1918 35.9141 35.3288 36.297 36.6747 36.297C37.8349 36.297 38.7747 36.0417 39.4941 35.5312C40.2366 34.9975 40.956 34.3594 41.6521 33.6168C41.8377 34.4058 42.2206 35.0439 42.8007 35.5312C43.404 35.9953 44.2162 36.2273 45.2372 36.2273C46.1886 36.2273 46.9196 36.0765 47.4301 35.7748C47.9638 35.4732 48.4511 35.0439 48.892 34.487L48.5787 34.2085H47.8129C46.8383 34.2085 46.351 33.6864 46.351 32.6422V29.2231L47.1345 29.5058L46.351 28.1864V25.155H44.5511ZM40.6151 27.153L41.5477 27.4896V32.8163C40.9908 33.2803 40.5035 33.6284 40.0858 33.8605C39.6913 34.0693 39.262 34.1737 38.7979 34.1737C38.1714 34.1737 37.6377 33.9417 37.1968 33.4776C36.7559 32.9903 36.5355 32.2709 36.5355 31.3196C36.5355 30.2057 36.8487 29.3239 37.4753 28.6742C38.125 28.0013 38.9836 27.5256 40.051 27.2471C40.2549 27.2158 40.443 27.1844 40.6151 27.153ZM30.8967 39.2556H48.9268V40.9959H30.8967V39.2556Z" fill="url(#paint0_linear_1002_44)"/>
<defs>
<linearGradient id="paint0_linear_1002_44" x1="48.5845" y1="14.6854" x2="28.666" y2="44.6203" gradientUnits="userSpaceOnUse">
<stop stop-color="#FFDDAA"/>
<stop offset="1" stop-color="#E81F2B"/>
</linearGradient>
</defs>
</svg>
